<svg width="187" height="176" viewBox="0 0 187 176" fill="none" xmlns="http://www.w3.org/2000/svg">
<path d="M101.823 0C112.731 4.40376 123.244 3.83918 134.472 6.0787C143.138 11.8563 154.31 16.2412 162.223 26.4038C162.712 28.4363 163.391 31.2027 164.125 34.1386C163.522 35.2677 162.844 36.5475 162.053 38.0154C163.598 39.3892 165.18 40.7819 167.366 42.7391C170.079 43.3601 173.62 44.1882 177.464 45.0727C177.765 45.9761 178.123 47.0299 178.632 48.4979C176.239 49.7588 173.865 50.982 171.265 52.3559C171.492 54.8777 171.68 57.0796 171.944 59.9778C170.455 61.0505 168.703 62.3302 166.895 63.6476C168.251 66.2447 169.721 69.0864 171.567 72.6057C171.567 74.7134 171.567 77.7434 171.567 80.8298C169.947 82.2224 168.27 83.6715 166.556 85.1394C169.457 86.4192 172.942 86.8144 174.675 90.503C173.131 91.3875 171.736 92.1968 169.89 93.2506C172.735 95.6972 175.429 98.012 179.046 101.117C179.197 103.921 179.385 107.76 179.574 111.506C184.133 114.159 187.844 116.53 186.846 123.061C186.186 127.427 185.96 131.68 184.679 136.084C181.25 146.491 170.568 149.653 161.507 153.379C156.232 155.355 150.655 156.145 145.512 158.95C140.651 161.603 134.246 160.831 129.687 164.84C117.875 166.835 106.778 172.349 94.4195 171.86C91.9139 171.766 89.3705 172.97 86.8461 173.591C75.8627 176.339 64.559 176.188 53.4626 175.793C45.6443 175.511 37.8448 172.707 30.6104 166.101C29.3859 163.052 26.9556 158.78 26.1266 154.226C25.6368 151.535 27.7092 148.373 28.9902 144.214C27.9164 141.993 25.1093 138.737 25.1282 135.519C25.1658 131.925 22.3211 129.666 22.7544 124.999C24.4311 123.305 26.8802 120.821 29.7061 117.942C27.4454 116.323 25.1658 114.705 22.453 112.766C22.3964 109.755 22.3399 106.443 22.2646 102.773C19.6459 103.827 17.2344 104.787 14.5969 105.841C10.9044 100.647 17.5547 94.9068 13.0521 90.3524C11.1493 91.8956 9.22769 93.4577 6.81625 95.4149C5.27141 94.2104 3.6889 92.9872 1.63541 91.4063L-0.0224609 84.6313C1.18326 82.7682 2.72809 80.3593 4.61203 77.4423L15.5389 74.7699C13.3912 71.4765 11.6015 68.7477 9.58564 65.6801C9.83055 51.3208 18.8358 41.1959 28.3497 31.3533C30.4785 29.1514 32.5132 26.7049 35.0377 25.0676C38.5041 22.8281 42.4604 21.379 46.0776 19.3276C52.1062 15.9213 58.9637 14.1334 64.5214 9.78614C65.3691 9.12746 66.6502 8.95808 67.7617 8.75107C77.2945 6.96322 86.3562 2.93584 96.3034 2.82293C98.2062 2.80411 100.09 0.940975 101.786 0.037639L101.823 0ZM71.5861 13.1172C71.1528 13.8135 70.7384 14.5098 70.3051 15.2062C69.5138 16.0154 69.9094 15.6014 70.3051 15.2062C69.9471 16.2789 70.1167 15.7519 70.3051 15.2062C70.7195 14.5098 71.1528 13.8135 71.5673 13.1172C71.9629 12.722 72.3586 12.308 71.5673 13.1172C71.7369 12.5902 71.9064 12.0445 71.5673 13.1172H71.5861ZM76.5974 11.8563C76.2772 12.3456 75.9757 12.8349 75.6554 13.343C76.1264 13.4183 76.5786 13.4936 77.0496 13.5689C76.6163 15.432 76.1641 17.2951 75.6178 19.5911C73.3947 19.4594 71.247 19.3088 69.0428 19.1771C66.8198 20.852 66.2734 25.9521 61.4505 23.0539C61.752 21.6236 62.0534 20.3062 62.336 18.9889C62.6939 18.6878 63.0707 18.4055 63.4287 18.1044C62.92 17.8221 62.4113 17.5398 61.9027 17.2575C59.4347 14.4534 57.4189 17.0693 55.7422 17.4645C56.4581 19.497 57.1363 21.4166 57.7957 23.2609L51.1265 24.8982C51.1642 22.9974 51.1831 21.586 51.2396 19.1394C47.3021 21.7177 44.1371 23.7879 41.4431 25.5569C42.4793 28.1916 43.214 30.0736 44.0052 32.0496L39.6157 33.1223C38.6549 32.0308 37.9578 31.2404 37.0347 30.1865C22.9051 36.284 16.8388 48.4414 12.0348 61.2198C12.8072 65.5107 13.768 69.2181 18.1952 71.1565C18.7604 69.5757 19.1937 68.3901 19.7024 66.9974C22.9993 68.9735 25.0151 73.1514 29.5743 72.8315C34.0204 72.5116 38.4665 72.3045 42.8937 71.8717C44.8719 71.6647 46.85 70.4979 48.7716 70.6296C56.4016 71.1942 63.8431 70.3661 71.247 68.5595C75.4105 67.5432 79.2349 65.2284 83.7376 65.3601C84.3593 65.3601 85.0186 63.9675 85.6592 63.2335C87.8069 62.4055 86.7142 60.8246 86.5258 59.4508C87.562 59.6578 88.5981 59.846 89.8415 60.0907C90.6328 58.1711 91.4429 56.2139 92.4225 53.805C93.4399 54.7083 93.9862 55.1976 94.5514 55.6869C93.0442 58.2652 91.5371 60.8623 89.7097 63.9863C96.6237 62.2926 103.255 60.7117 109.849 58.9803C110.358 58.8486 110.584 57.7006 110.961 57.0231C111.337 56.7408 111.714 56.4397 112.091 56.1574C111.582 55.8751 111.074 55.5928 110.546 55.3293C110.245 54.953 109.962 54.5766 109.661 54.219C109.397 54.7271 109.114 55.2541 108.85 55.7622C108.304 55.9316 107.739 56.0633 107.174 56.1762C106.891 55.0659 106.627 53.9367 106.345 52.8264C106.74 52.4123 107.136 52.0171 106.345 52.8264C106.703 51.7348 106.533 52.2618 106.345 52.8075C104.216 53.6544 105.309 55.2164 105.497 56.5903C104.668 57.2489 103.839 57.9076 103.142 58.4534C102.087 57.663 101.051 56.8914 100.034 56.1198C99.5438 55.7998 99.0728 55.4799 98.583 55.16C98.5077 55.6305 98.4135 56.0821 98.3381 56.5526C97.528 57.2301 96.7368 57.9076 95.6064 58.8486C95.2296 57.7006 94.8905 56.7032 94.5514 55.7057C95.7948 54.3131 97.0193 52.9393 97.4715 52.4311C99.9018 51.8289 101.202 51.509 102.52 51.1891C102.973 51.0761 103.67 51.1514 103.82 50.8691C106.42 46.4089 111.488 48.0086 115.105 46.2395C115.218 45.4115 115.331 44.6022 115.463 43.586C116.48 44.4893 117.309 45.2233 118.44 46.2019C119.231 44.1882 119.89 42.5133 120.569 40.8195C121.322 41.6476 122 42.4003 122.453 42.8897C123.338 41.1771 124.186 39.521 125.486 37.0368C126.107 39.0693 126.352 39.8974 126.597 40.7066C124.45 41.5346 125.561 43.1155 125.731 44.4705C124.6 45.7126 123.866 47.1617 123.206 48.6861H123.168C122.811 47.651 122.453 46.6347 121.567 44.0565C120.418 48.1591 119.683 50.7186 118.967 53.2968C116.631 53.5791 116.914 51.6407 116.462 50.3422C116.857 49.9281 117.253 49.5329 116.462 50.3422C116.65 49.7964 116.82 49.2506 116.462 50.3422C115.915 50.5116 115.369 50.6433 114.804 50.7186C114.389 50.3234 113.975 49.947 114.936 50.8503C113.711 50.3986 114.239 50.5868 114.766 50.7938C114.804 52.3747 114.86 53.9555 114.898 55.5928C116.556 55.7434 118.704 56.3456 118.986 53.2968C121.624 52.6382 124.318 52.0924 126.899 51.2455C127.652 51.0009 128.104 49.8529 128.688 49.1377L129.536 48.9307L130.384 48.7425C131.119 49.2318 131.872 49.74 132.664 50.2857C133.643 48.4414 134.321 47.1429 135 45.8443C138.692 48.6672 141.575 45.148 144.74 45.1856C145.116 43.1155 145.399 41.6287 145.738 39.728C141.895 41.911 138.466 43.8494 135.018 45.8067C134.171 43.6989 132.607 44.7904 131.232 44.9598C130.78 44.0188 130.346 43.0778 129.894 42.1557C129.574 42.2686 129.272 42.3815 128.952 42.4944C129.141 43.4542 129.329 44.4329 129.517 45.3926C127.388 46.2395 128.481 47.8015 128.67 49.1754C125.335 49.1189 126.71 46.1078 125.749 44.5458C127.859 43.6989 126.786 42.1369 126.597 40.763C127.162 39.6339 127.709 38.5235 128.048 37.846L134.434 36.284L135.037 38.7117C134.604 39.408 134.19 40.1044 133.756 40.8007C132.965 41.6099 133.361 41.2147 133.756 40.8007C133.417 41.8734 133.587 41.3276 133.756 40.8007C134.171 40.1044 134.604 39.408 135.018 38.7117C135.395 37.8272 136.111 36.9239 136.073 36.0582C135.96 33.1411 135.565 30.2241 135.301 27.5894C133.794 25.6886 132.306 23.8255 130.836 21.9624L130.949 21.7742C133.643 22.8657 136.337 23.9572 138.824 24.9547C138.259 28.2293 137.769 31.0334 137.223 34.2139C140.312 32.426 142.705 31.0334 145.286 29.5466L146.002 32.4448C144.193 33.5175 144.099 34.5338 146.718 36.1711C146.379 34.4397 146.19 33.4423 145.983 32.4448C148.036 29.6407 150.071 26.8554 152.671 23.2985L153.99 28.6997C152.991 32.2943 151.974 35.8888 150.938 39.6151C150.033 39.6151 149.129 39.6151 148.206 39.6339C147.999 41.1583 147.754 42.6638 147.434 44.1694C154.367 43.8306 158.455 40.4243 160.828 34.6091C159.811 31.8802 159.924 28.7562 157.569 26.3473C158.097 30.3747 157.795 34.0257 154.649 37.5637C154.385 34.1009 154.197 31.3909 153.99 28.6997C154.706 27.0248 155.422 25.3499 156.062 23.8631C150.617 19.3841 144.589 14.5098 138.297 11.7434C131.326 9.05218 123.809 7.77246 116.499 5.94696C116.141 5.85287 115.595 6.47391 114.672 7.07613C115.425 8.14885 116.16 9.20274 117.027 10.4448C116.424 11.367 115.67 12.515 115.011 13.4748C111.375 13.136 109.887 11.4423 109.906 8.37468C110.697 7.5278 111.45 6.71856 113.033 5.00599C107.381 5.62703 102.973 6.11634 98.5453 6.60565C97.7352 5.81523 98.1497 6.21044 98.5453 6.60565C97.4903 6.2669 98.0178 6.43627 98.5453 6.60565L100.166 13.2113C96.4353 13.5877 93.4775 13.8888 90.5574 14.1711C90.1806 15.432 89.8227 16.6553 89.2387 18.6689C87.4301 17.2387 85.7345 15.2626 85.1317 15.5449C81.7594 17.1634 79.8566 13.6253 77.0496 13.663C76.8989 13.1172 76.767 12.5526 76.6728 12.0068C77.0496 11.5928 77.4452 11.1788 76.5032 12.195C76.993 10.8965 76.7858 11.4423 76.5974 11.9692V11.8563ZM163.56 147.639L164.37 147.413L165.199 147.263C167.724 149.032 168.948 148.712 170.305 145.983C171.586 143.894 172.848 141.786 174.11 139.678C176.22 138.831 175.165 137.269 174.958 135.896C175.938 135.068 176.917 134.24 177.916 133.411C178.18 134.522 178.443 135.632 178.707 136.743C178.33 137.157 177.953 137.571 178.858 136.592C178.406 137.853 178.594 137.326 178.782 136.799C180.836 135.914 179.819 134.371 179.611 132.997C184.491 129.76 182.776 124.736 184.039 118.826C177.727 123.042 172.132 125.3 166.688 127.803C156.213 132.602 146.04 137.853 134.698 140.488C118.666 144.214 102.747 148.429 86.7142 152.118C80.6856 153.511 74.3744 155.035 68.3081 154.659C55.5726 153.849 43.0444 157.18 30.1018 155.186C30.309 161.49 33.003 165.329 37.694 168.265C47.9992 174.927 60.5086 172.951 72.0194 172.405C75.7873 172.274 79.3291 170.674 82.8333 171.163C86.9968 171.747 90.7081 170.787 94.5325 169.865C100.147 168.529 105.761 167.136 111.356 165.762C112.355 164.407 113.353 163.071 114.352 161.735C115.972 162.582 117.479 163.334 118.798 164.031C120.399 162.902 121.699 161.979 122.98 161.095C123.602 161.81 123.96 162.224 124.318 162.619C123.526 163.429 123.922 163.015 124.318 162.619C123.979 163.692 124.148 163.146 124.318 162.619C125.976 160.549 127.633 158.479 130.064 155.449C129.969 158.046 129.932 159.458 129.8 162.77C132.23 158.517 133.813 155.75 135.395 153.003C135.753 153.153 136.111 153.304 136.469 153.454C136.205 154.997 135.942 156.522 135.697 158.065C134.905 158.874 135.301 158.46 135.697 158.065C135.339 159.138 135.527 158.592 135.697 158.065C140.162 158.423 137.505 152.626 141.386 151.967C141.348 153.473 141.292 154.903 141.217 157.764C143.854 154.621 145.719 152.382 147.961 149.709L148.79 153.078C147.999 153.887 148.394 153.473 148.79 153.078C148.451 154.132 148.621 153.605 148.79 153.078C150.203 151.553 151.597 150.029 153.01 148.505C153.5 148.825 153.971 149.145 154.461 149.465C154.536 148.994 154.63 148.524 154.706 148.072C155.704 146.096 156.684 144.12 158.304 140.902L159.755 146.83C159.321 147.526 158.907 148.222 158.474 148.919C157.682 149.728 158.078 149.314 158.474 148.919C158.134 149.973 158.304 149.446 158.474 148.919C160.244 145.983 161.639 143.743 163.692 140.412C164.201 140.77 164.935 141.297 165.67 141.805C164.879 142.614 165.275 142.219 165.67 141.805C165.331 142.878 165.501 142.332 165.67 141.805C166.65 140.977 167.629 140.149 168.609 139.321C168.911 139.697 169.193 140.055 169.495 140.431C169.777 139.923 170.041 139.415 170.324 138.888C171.303 136.912 172.302 134.917 173.696 132.113C174.317 133.976 174.638 134.955 174.958 135.952C172.81 136.78 173.903 138.361 174.091 139.735C173.225 141.127 172.377 142.52 171.529 143.913C171.002 144.101 170.455 144.233 169.89 144.308C169.4 143.988 168.929 143.668 168.44 143.348C168.345 143.819 168.27 144.27 168.176 144.741C167.196 145.569 166.235 146.397 165.256 147.206C164.954 146.849 164.653 146.472 164.333 146.115C164.069 146.623 163.786 147.15 163.522 147.658C163.127 148.053 162.731 148.467 163.56 147.601C163.165 148.731 163.353 148.204 163.541 147.658L163.56 147.639ZM65.7836 84.142C65.3503 84.8383 64.9358 85.5347 64.5025 86.231C63.5229 86.9273 62.5621 87.6048 61.5824 88.3011C62.2606 88.8845 62.9389 89.4867 63.6171 90.0702C69.137 94.8315 72.4339 83.8974 77.7843 85.1583C78.0292 86.6638 78.2553 88.1882 78.5756 90.2019C82.984 85.8546 86.733 82.166 91.1038 77.8375C87.4866 77.6869 84.3027 77.574 80.7798 77.4234C79.6306 79.1548 78.2365 81.2438 76.9554 83.201L70.5877 84.7631C67.5733 87.0402 65.6329 88.4893 63.6924 89.9572C63.9562 88.7151 64.2388 87.4919 64.5025 86.2498C64.917 85.5535 65.3503 84.8571 65.7648 84.1608C66.1604 83.7656 66.556 83.3516 65.7648 84.1608C65.9532 83.6151 66.1227 83.0881 65.7648 84.1608L65.7836 84.142ZM172.565 118.695C172.942 118.262 173.338 117.848 172.396 118.883C172.886 117.565 172.678 118.111 172.49 118.638C172.113 119.052 171.736 119.466 172.66 118.45C172.17 119.749 172.377 119.222 172.565 118.695ZM141.801 117.264C141.386 117.961 140.953 118.657 140.538 119.353C139.182 119.767 137.147 119.73 136.544 120.633C131.948 127.54 123.489 128.801 117.686 134.447C108.681 130.043 99.2424 128.01 89.0691 126.222C90.1241 128.142 90.8212 129.384 91.9515 131.473C89.2575 130.476 87.5243 129.836 85.7911 129.196C85.094 128.763 84.3969 128.349 83.6999 127.916C82.8898 127.126 83.3043 127.521 83.6999 127.916C82.6072 127.559 83.1535 127.728 83.6999 127.916C84.3969 128.33 85.094 128.763 85.7911 129.177C85.1694 133.882 82.3058 129.572 80.7421 130.419C80.2711 128.857 79.8001 127.295 79.4045 125.921C73.9787 125.564 70.55 129.591 65.972 129.836C61.4882 130.08 57.8711 134.202 52.8598 132.734C53.7641 131.925 54.5742 131.191 56.1567 129.779C51.0512 130.72 47.4905 132.583 44.5327 135.707C39.7287 135.444 36.9216 141.692 31.477 139.151C31.251 142.031 31.0814 144.44 30.8365 147.47C33.7754 147.112 35.9231 146.849 38.165 146.566C37.8824 147.714 37.694 148.467 37.5433 149.013C48.1311 148.618 58.6623 148.204 69.3066 147.808C72.2267 143.48 75.0149 139.34 77.7843 135.218C76.5974 134.371 75.4859 133.581 74.299 132.734C75.7685 131.548 76.993 130.57 77.935 129.798C79.1031 130.043 79.932 130.212 80.7421 130.382C81.1377 135.5 80.7044 140.412 76.8235 144.854C86.0925 148.072 94.3065 144.722 102.37 142.896C103.425 141.353 104.235 140.168 105.064 138.944C105.836 139.227 106.665 139.848 107.381 139.735C112.637 138.963 117.667 136.611 123.206 137.721C124.129 137.909 125.976 137.213 126.183 136.554C127.332 132.847 132.419 133.807 133.511 130.118C133.587 129.855 134.981 129.986 135.772 129.93C135.527 130.908 135.339 131.68 135.131 132.546C141.066 133.186 144.645 128.669 149.28 126.091C149.129 127.201 148.978 128.311 148.828 129.422C149.261 129.572 149.694 129.704 150.128 129.855C150.975 128.311 151.823 126.768 152.671 125.225C153.707 124.359 154.743 123.494 155.365 122.967C157.758 123.117 159.642 123.23 161.507 123.324C163.051 120.972 164.427 118.883 165.764 116.831C166.518 117.151 167.027 117.377 167.686 117.678C168.628 116.455 169.589 115.213 169.871 114.855L176.201 113.312C176.691 113.877 177.219 114.479 177.727 115.1C178.048 114.855 178.349 114.63 178.669 114.385C177.878 112.748 177.106 111.11 176.183 109.191C176.597 107.29 177.106 104.9 177.652 102.378C175.448 101.832 173.583 101.381 171.718 100.929C171.303 100.534 170.889 100.157 171.774 100.985C170.625 100.59 171.152 100.778 171.699 100.967C171.85 102.021 171.981 103.074 172.113 103.978C168.684 105.333 165.708 106.5 162.731 107.666C161.752 107.121 160.753 106.556 160.15 106.217C155.93 108.589 151.936 110.828 148.639 112.672C147.98 114.272 147.603 115.194 147.339 115.834L143.459 116.794C143.289 116.248 143.157 115.683 143.044 115.119C143.967 114.667 144.89 114.216 145.832 113.764C145.569 113.406 145.305 113.068 145.041 112.71C144.382 113.519 143.722 114.31 143.063 115.119C142.63 115.815 142.215 116.512 141.782 117.208L141.801 117.264ZM152.03 86.1933C151.635 86.6074 151.239 87.0026 152.049 86.1557C151.672 87.266 151.861 86.7203 152.049 86.1933L152.878 85.9863L153.726 85.7981C155.139 86.1745 156.552 86.5697 157.362 86.7956C160.282 80.4157 162.882 74.6946 165.557 68.8229C164.935 66.4705 165.048 63.3088 161.243 62.9701C158.511 71.0248 155.685 72.6809 148.376 70.3285C145.606 69.444 143.477 70.1215 141.593 71.7211C142.027 74.4123 142.422 76.8212 142.705 78.515C140.425 79.4371 138.881 80.0582 137.298 80.6792C135.904 79.9641 134.491 79.2489 133.832 78.9102C131.552 79.9641 130.083 80.6228 128.745 81.2438C127.52 80.077 126.56 79.1737 125.712 78.3832L111.092 81.9589C109.924 83.5586 108.756 85.1394 107.362 87.0779C105.893 86.4756 104.781 86.0051 103.651 85.5347C104.046 85.1206 104.442 84.7254 103.651 85.5347C103.82 85.0077 103.99 84.4619 103.651 85.5347C102.407 86.4756 101.164 87.3978 99.9395 88.3199C98.8844 87.1155 98.1874 86.3251 97.6411 85.6852C95.4557 87.1908 93.4022 88.6022 91.311 89.9949C91.2168 90.0702 90.8777 89.7879 90.6893 89.6938C90.1995 88.9786 89.7473 88.2823 89.7097 88.2447C85.1505 89.355 80.987 91.0488 76.7293 91.2558C71.5296 91.5193 66.7633 92.1779 62.3737 95.2267C60.8665 96.2806 58.7565 96.4688 57.4566 96.8828C55.5538 95.8477 54.3481 95.2079 53.5568 94.7562C49.9208 97.0334 46.6804 99.0659 43.4777 101.08C44.0241 101.682 44.5327 102.265 45.1356 102.924C44.4197 103.846 43.8168 104.655 42.9879 105.728C42.2155 104.034 41.6315 102.792 41.217 101.851C38.0143 101.324 35.0754 100.854 32.7016 100.477C31.7596 98.6518 31.1379 97.485 30.5351 96.2994C27.1063 98.0057 25.775 100.615 26.5411 104.128C29.7626 104.26 33.0407 104.392 36.2057 104.524C37.8824 106.142 39.5403 107.742 40.8025 108.946C39.8417 110.433 39.1824 111.449 38.4288 112.597C42.4981 114.027 45.9269 115.044 49.0919 112.541C48.3006 111.355 47.5847 110.282 46.85 109.21C49.431 107.61 51.5222 106.311 53.2931 105.201C64.9358 107.572 76.2395 109.718 86.8837 102.66C89.8227 103.488 91.4052 100.421 94.1369 100.195C97.2643 99.9316 100.297 98.7271 103.406 98.1437C103.933 98.0496 104.649 98.953 105.271 99.4046C102.049 100.214 98.9786 101.155 95.8513 102.265C102.633 102.152 102.615 102.058 105.29 99.4046C107.626 99.3105 108.417 97.4098 109.661 95.9042C110.923 94.361 112.637 93.213 114.163 91.8768C118.911 90.71 123.639 89.562 128.443 88.3764C129.254 89.2985 129.969 90.1454 130.667 90.9735C131.269 90.4842 131.872 89.9949 132.475 89.4867C136.193 91.1554 139.195 90.6536 141.48 87.9812C140.934 87.3413 140.388 86.7015 139.446 85.5911L149.035 83.2387C150.128 80.7921 151.239 78.308 152.426 75.6921C153.274 76.2378 154.178 76.8212 154.875 77.2541C154.31 79.7194 153.82 81.8837 153.312 84.0479C152.878 84.7442 152.464 85.4406 152.03 86.1369V86.1933ZM158.36 89.9949C157.946 89.6185 157.532 89.2233 158.455 90.089C157.249 89.6749 157.795 89.8631 158.342 90.0513C158.756 90.4277 159.171 90.8041 158.247 89.9572C159.434 90.3713 158.907 90.1831 158.36 89.9949ZM165.444 97.1839C165.067 97.598 164.672 98.012 165.501 97.1275C165.105 98.2755 165.293 97.7485 165.482 97.2027C165.877 96.7887 166.273 96.3935 165.425 97.2592C165.84 96.1112 165.651 96.6382 165.463 97.1839H165.444ZM172.829 47.2181C173.244 47.5945 173.658 47.9897 172.754 47.1617C173.922 47.5381 173.375 47.3687 172.848 47.1993C171.981 45.0915 170.418 46.2019 169.061 46.3524C166.461 44.5834 163.862 42.8144 160.96 40.8383C158.869 42.8897 156.929 44.7904 153.971 47.6886C157.419 47.2746 159.491 47.0111 161.563 46.7665C162.279 48.2909 162.844 49.5141 163.334 50.568C165.293 49.1377 167.196 47.7451 169.08 46.3713C169.909 48.4979 171.51 47.3687 172.848 47.237L172.829 47.2181ZM142.724 99.1976C141.914 98.426 142.309 98.8024 142.724 99.1976C141.65 98.8589 142.177 99.0282 142.724 99.1976C143.572 101.343 145.135 100.233 146.51 100.044C146.868 101.023 147.226 102.002 147.697 103.3C150.712 102.566 153.387 102.002 156.006 101.192C156.495 101.042 156.703 99.9316 157.023 99.2541C159.491 98.5954 162.449 98.5389 162.656 94.8127C159.095 94.3986 157.437 96.0736 157.023 99.2541C153.519 99.5175 150.015 99.781 146.492 100.044C145.644 97.9179 144.08 99.0094 142.705 99.1788L142.724 99.1976ZM31.948 128.142C32.8712 127.69 33.7943 127.22 34.6986 126.768C34.416 126.448 34.1334 126.109 33.8508 125.79C33.1914 126.561 32.5509 127.333 31.8915 128.104C31.5147 128.518 31.1191 128.932 31.9857 127.991C31.5712 129.196 31.7596 128.669 31.9292 128.123L31.948 128.142ZM165.086 88.3576C166.16 90.1643 167.177 90.2019 168.835 87.6236C167.083 87.9624 166.085 88.1694 165.086 88.3576C164.012 86.5509 162.995 86.4944 161.337 89.0915C163.089 88.7528 164.088 88.5458 165.086 88.3576ZM78.6698 122.026C81.2696 125.056 83.0405 122.101 84.9433 120.501L78.6698 122.044C76.0511 118.883 74.299 122.026 72.3586 123.588L78.6886 122.044L78.6698 122.026ZM53.18 90.7288L51.899 89.6373C51.7671 89.8443 51.654 90.0513 51.5222 90.2395C52.0497 90.4465 52.5772 90.6724 53.0858 90.8794C54.8756 92.1968 56.6465 93.4953 59.1333 95.3208C58.5493 92.9119 58.1725 91.4252 57.7957 89.882C55.9683 90.2207 54.5742 90.4842 53.18 90.7477V90.7288ZM24.9398 92.3473L16.82 94.3422C17.4605 96.9393 17.9127 98.7836 18.5344 101.343C20.927 97.9743 22.9428 95.1702 24.9398 92.3661C26.3904 91.8204 27.8599 91.2746 30.9495 90.1266C27.2382 89.9949 25.1093 89.3927 24.9398 92.3661V92.3473ZM147.113 58.8674C147.377 55.4234 150.636 56.929 152.238 55.7246C152.52 55.5175 152.52 54.9341 152.652 54.5389C151.635 54.2943 150.693 54.0684 150.109 53.9367C150.052 52.8264 150.015 52.0547 149.902 49.9658C146.058 53.8614 143.251 56.7032 140.275 59.7331C142.121 60.8058 143.76 61.7468 145.248 62.5937C145.983 61.1257 146.548 59.9966 147.095 58.8674C151.39 60.9752 149.073 65.1908 149.562 68.71L155.93 67.148C156.872 65.0779 157.776 63.083 158.7 61.0505C154.819 58.3969 151.126 57.6441 147.076 58.8674H147.113ZM27.9541 75.5603C27.144 74.7887 27.5396 75.1651 27.9541 75.5603C26.8614 75.2027 27.3889 75.3909 27.9541 75.5603C28.4627 79.5312 28.9526 83.5021 29.4424 87.3601C34.9435 87.5672 35.6405 79.55 41.4431 81.7331C41.4054 82.6176 41.3677 83.5021 41.3112 85.1206C43.4024 83.6903 44.9095 82.6929 46.3602 81.6955C47.3398 82.8246 48.0557 83.6527 48.7528 84.4431C49.9397 83.3139 51.07 82.2412 52.0308 81.3191C47.321 78.1198 42.3851 75.9932 37.7317 78.4021C33.8508 77.2729 30.9119 76.4072 27.9729 75.5415L27.9541 75.5603ZM74.0918 110.659C72.2455 108.231 70.7949 109.699 69.495 111.788L74.0918 110.659C74.8265 112.127 75.5613 113.576 76.4655 115.401C84.2462 113.406 92.6109 111.807 100.354 109.473C106.552 107.591 112.543 105.069 119.853 102.359C120.192 102.039 121.492 100.835 124.092 98.426C111.62 101.475 100.731 104.053 89.9169 106.895C88.146 107.365 86.6765 108.927 85.0563 110C84.9621 109.661 84.8491 109.304 84.7549 108.965C81.1942 109.53 77.6336 110.094 74.0729 110.659H74.0918ZM80.987 73.302C81.4768 73.6219 81.9478 73.9418 82.4376 74.2618C82.513 73.7913 82.6072 73.3396 82.6825 72.8691C83.5115 72.2293 84.3593 71.5706 85.3012 70.8366C86.036 74.8263 89.4836 72.2104 91.3675 73.302C91.1791 74.13 91.0096 74.8828 90.8212 75.7673C91.7066 76.2943 92.4414 76.7459 93.1007 77.1412C95.1731 75.4474 97.0759 73.8854 97.9236 73.2079C101.202 72.9256 103.255 72.7562 106.59 72.4739C104.442 69.1993 102.973 66.9974 101.616 64.9273C93.6094 65.9624 86.5258 69.3687 78.5567 68.8041C76.409 68.6536 73.828 71.4012 71.8122 73.2267C70.1543 74.7323 69.024 76.8212 67.7994 78.4585C70.9268 81.6955 73.602 80.7357 76.3525 79.4183C76.9742 76.7459 77.2003 73.6784 80.9493 73.302H80.987ZM94.6644 121.668C93.8543 120.878 94.2688 121.273 94.6644 121.668C93.5906 121.329 94.1369 121.499 94.6644 121.668C102.276 123.607 110.263 126.429 117.215 129.666C120.418 120.257 129.329 116.455 135.697 110.602C124.016 111.995 112.43 113.388 100.222 114.837C101.145 115.985 101.597 116.549 102.294 117.415C99.7699 118.826 97.2266 120.238 94.6833 121.668H94.6644ZM14.9926 82.5235C16.9895 86.024 15.6896 90.503 20.3053 91.3499C21.4545 90.1831 22.6037 89.0163 23.3196 88.3011C21.9443 84.669 20.7009 81.3755 19.514 78.2703C21.2472 76.3507 22.3588 75.0898 24.0355 73.2267C18.3083 75.3721 13.3912 77.2164 8.64367 79.0043C7.77706 80.2275 7.15535 82.0907 5.94963 82.58C3.48167 83.5962 2.12523 85.0453 2.42666 87.6236C2.74693 90.3524 4.68739 91.2934 7.6075 91.3687C8.79438 88.621 9.98127 85.8546 11.1493 83.1446C12.4869 82.9376 13.5796 82.7494 15.0114 82.5235H14.9926ZM136.13 98.7271C127.652 105.784 116.688 107.083 106.703 111.223C116.593 109.906 126.503 108.589 136.62 107.234C136.771 104.919 139.615 102.171 136.13 98.7271ZM152.633 46.2207C152.426 46.0137 152.219 45.7879 152.012 45.5808C139.672 49.834 127.822 55.3293 114.954 57.8135L115.256 58.9991C124.073 57.7382 132.871 56.4585 141.688 55.1976C141.518 54.7836 141.348 54.3507 141.198 53.9367C145.003 51.3584 148.828 48.7802 152.633 46.2019V46.2207ZM30.7235 136.874C39.9171 136.818 45.0226 129.309 52.7467 127.559C43.8545 127.634 34.887 127.352 28.0671 135.293C29.3105 136.027 30.2713 136.611 30.7046 136.874H30.7235ZM51.5598 124.679L73.828 119.222C64.7286 119.222 57.2305 119.24 49.5252 119.259C49.2049 119.73 48.7151 120.426 48.263 121.085C49.5252 122.459 50.6367 123.663 51.5598 124.679ZM36.7898 99.7622L43.7603 98.0496C45.0226 94.5868 48.9223 91.9333 48.6397 87.0967L39.7099 89.2797C41.8199 89.8067 42.8372 90.0702 43.9299 90.3336C41.6126 93.1001 37.581 94.2669 36.7898 99.7434V99.7622ZM62.3737 71.1377C57.758 76.7836 53.3308 80.5287 51.899 87.1155L60.697 84.9512C61.2056 80.7545 61.6766 76.8589 62.3737 71.1377ZM130.516 73.2079C120.55 72.1352 112.581 72.6621 104.725 79.5312C113.749 77.3293 121.379 75.4474 130.516 73.2079ZM117.554 66.1882C117.385 65.8306 117.215 65.4731 117.046 65.1155C117.78 64.4192 118.534 63.7228 120.022 62.3302L112.788 64.0992C112.166 66.414 111.601 68.503 110.904 71.0624C112.618 71.3071 114.107 71.4953 116.33 71.7964C115.199 70.3097 114.766 69.7451 114.201 68.9923L119.363 67.7314C121.228 68.7288 122.434 69.3875 125.052 70.799C124.016 67.2797 123.432 65.3037 122.961 63.6852C120.889 64.6262 119.212 65.3978 117.554 66.1506V66.1882ZM157.645 55.1035L158.36 58.0582C159.924 57.0043 160.96 56.3268 162.11 55.5552C163.636 56.929 165.048 58.1711 166.518 59.4885C167.554 59.1309 168.571 58.7921 169.551 58.4534C169.476 55.5364 169.4 52.9204 169.325 50.3422C165.632 51.8477 161.883 53.3721 157.626 55.1035H157.645ZM102.577 146.077C111.017 144.007 117.517 142.407 125.731 140.412C119.005 139.622 114.201 141.052 109.359 141.466C107.532 141.636 105.893 143.725 102.577 146.077ZM32.2495 115.928C33.5871 115.044 34.6232 114.385 36.4883 113.162C32.3248 111.204 29.2351 109.755 25.8817 108.175C25.3731 113.312 28.9714 113.933 32.2495 115.928ZM129.819 63.9487C135.113 65.0779 138.673 63.083 138.56 60.3165C137.298 59.6955 135.697 58.9239 135.263 58.7169C133.097 60.787 131.458 62.3678 129.8 63.9487H129.819ZM82.9086 148.862C78.5756 148.486 73.8469 146.453 69.6834 150.086C74.299 152.212 78.519 150.857 82.9086 148.862ZM47.6789 74.6758C47.6789 75.0334 47.6601 75.3909 47.6413 75.7485C49.3933 76.0308 51.2396 76.7836 52.8409 76.4072C54.009 76.1437 54.8379 74.3935 56.5711 72.4927L47.6789 74.6758ZM101.315 145.964C96.1904 146.491 92.3095 147.645 89.672 149.427C93.2515 148.486 97.0947 148.411 101.315 145.964ZM155.666 96.8828C152.024 94.8127 148.652 94.5931 145.55 96.2241C148.62 96.4311 151.22 96.6005 155.666 96.8828ZM151.936 132.376C146.416 132.019 146.416 132.056 142.761 134.616L151.936 132.376ZM138.711 109.548C138.843 109.981 138.975 110.414 139.125 110.847L146.567 108.626L146.322 107.685L138.711 109.548ZM161.959 127.954C161.902 127.709 161.827 127.446 161.77 127.201L155.798 128.669C155.855 128.914 155.93 129.177 155.987 129.422L161.959 127.954ZM84.7926 7.64072L83.1724 6.73738C82.7014 8.2994 82.2304 9.88024 81.7783 11.4423C82.1739 11.574 82.5507 11.7246 82.9463 11.8563C83.568 10.4448 84.1709 9.03336 84.7926 7.64072ZM42.6111 152.25C42.4416 151.685 42.272 151.121 42.1025 150.556C40.1997 151.177 38.2781 151.817 36.3753 152.438C36.4506 152.758 36.5448 153.078 36.6202 153.398C38.6172 153.021 40.6142 152.626 42.6111 152.25ZM54.1032 151.666L54.2916 152.419L60.2637 150.951C60.2071 150.707 60.1318 150.443 60.0753 150.198L54.1032 151.666ZM34.6986 95.3208C36.413 93.7588 37.581 92.7049 39.4461 91.0111L34.2088 92.2909C34.3595 93.2318 34.4537 93.7776 34.7174 95.302L34.6986 95.3208ZM45.437 151.666C45.6254 152.212 45.795 152.739 45.9834 153.285C47.321 152.796 48.6586 152.287 49.9773 151.798C49.8831 151.497 49.8078 151.196 49.7136 150.895C48.2818 151.158 46.85 151.422 45.437 151.685V151.666ZM63.2214 124.755C64.4272 125.432 65.4257 125.997 67.1024 126.919C66.5749 123.625 65.6517 122.929 63.2214 124.755ZM27.6903 150.688C30.0264 151.949 30.9307 152.419 32.0045 153.003C32.5132 150.104 31.3263 149.766 27.6903 150.688ZM63.2968 150.707C63.2968 151.196 63.278 151.685 63.2591 152.175L67.5545 151.121C67.5168 150.857 67.4603 150.575 67.4226 150.311C66.0474 150.443 64.6721 150.575 63.2968 150.707ZM167.799 71.8717C167.554 71.947 167.29 72.0222 167.045 72.0975C167.403 73.5278 167.743 74.9581 168.1 76.3884C168.458 76.2755 168.816 76.1625 169.174 76.0496C168.722 74.657 168.27 73.2643 167.799 71.8717ZM149.261 36.6792C149.581 36.5663 149.883 36.4534 150.203 36.3405C149.902 35.5124 149.581 34.6843 149.28 33.8563C148.96 33.9692 148.658 34.0821 148.338 34.195C148.639 35.0231 148.941 35.8512 149.242 36.6792H149.261ZM131.401 137.778L131.778 139.246C132.588 138.907 133.417 138.568 134.227 138.229C134.171 137.985 134.114 137.74 134.039 137.495C133.153 137.589 132.268 137.684 131.382 137.778H131.401ZM37.1289 75.5415C37.2419 75.8426 37.3549 76.1625 37.468 76.4637C38.2969 76.1625 39.1447 75.8614 39.9736 75.5603C39.8606 75.2592 39.7475 74.9393 39.6533 74.6382C38.8244 74.9393 37.9766 75.2404 37.1477 75.5415H37.1289ZM63.2403 111.073L62.9012 110.151C62.0722 110.452 61.2245 110.753 60.3955 111.054C60.5086 111.374 60.6216 111.675 60.7346 111.995C61.5636 111.694 62.4113 111.374 63.2403 111.073ZM92.6109 83.408C92.724 83.7092 92.837 84.0103 92.9312 84.3114C93.779 84.0103 94.6456 83.7092 95.4933 83.408C95.3803 83.0881 95.2484 82.7494 95.1354 82.4294C94.2876 82.7494 93.4399 83.0881 92.6109 83.408ZM141.141 93.7588C141.028 93.4577 140.915 93.1377 140.802 92.8366C139.973 93.1377 139.163 93.4577 138.334 93.7588C138.447 94.0787 138.56 94.3798 138.673 94.6997C139.502 94.3986 140.312 94.0787 141.141 93.7776V93.7588ZM87.8069 122.044C87.9199 122.346 88.0329 122.647 88.1271 122.929C88.9749 122.628 89.8415 122.327 90.6893 122.026C90.5763 121.706 90.4444 121.386 90.3314 121.066C89.4836 121.386 88.6358 121.725 87.8069 122.044ZM37.2607 122.252C37.0723 122.12 36.8651 121.969 36.6767 121.837C36.5448 122.044 36.413 122.233 36.2811 122.44C36.5637 122.553 36.8463 122.666 37.1289 122.778C37.1665 122.609 37.2231 122.421 37.2607 122.252ZM166.989 100.891C166.838 101.475 166.951 101.475 167.46 101.814C167.479 101.456 167.498 101.098 167.516 100.76L166.97 100.891H166.989ZM45.1356 118.375C44.5327 118.243 44.5327 118.356 44.1748 118.845C44.5327 118.845 44.9095 118.864 45.2675 118.883L45.1356 118.375ZM146.68 88.1317C146.077 88 146.077 88.1129 145.719 88.621C146.077 88.621 146.454 88.6399 146.812 88.6587L146.68 88.1317ZM54.6118 108.758C54.4611 109.36 54.5553 109.36 55.0828 109.718C55.0828 109.36 55.1205 109.003 55.1393 108.664C54.9698 108.701 54.7814 108.739 54.6118 108.758ZM167.912 79.55C167.705 79.4183 167.516 79.2678 167.309 79.136C167.177 79.343 167.045 79.55 166.914 79.7571C167.196 79.87 167.498 79.9829 167.78 80.1146L167.912 79.5689V79.55ZM165.388 76.5954C165.18 76.4448 164.992 76.3131 164.785 76.1625L164.389 76.7836C164.672 76.8965 164.973 77.0282 165.256 77.1412C165.293 76.953 165.35 76.7648 165.388 76.5766V76.5954ZM139.747 73.9607C139.54 73.8101 139.352 73.6784 139.144 73.5278C139.012 73.7348 138.881 73.9418 138.749 74.1488C139.031 74.2618 139.333 74.3935 139.615 74.5064C139.653 74.3182 139.709 74.13 139.747 73.9607ZM34.2464 149.427C34.0957 150.029 34.1899 150.029 34.6986 150.387C34.7174 150.029 34.7363 149.672 34.7551 149.333C34.5855 149.37 34.416 149.389 34.2276 149.427H34.2464ZM131.326 76.012C131.119 75.8802 130.911 75.7297 130.723 75.5979C130.591 75.805 130.459 76.012 130.327 76.219C130.629 76.3319 130.911 76.4448 131.213 76.5577C131.251 76.3696 131.307 76.2002 131.345 76.012H131.326ZM16.0664 103.074L16.4997 102.472C16.2925 102.34 16.0852 102.209 15.878 102.077C15.765 102.359 15.6331 102.66 15.5201 102.943C15.7084 102.98 15.8968 103.037 16.0852 103.074H16.0664ZM176.145 120.351C175.938 120.219 175.73 120.068 175.542 119.937C175.41 120.144 175.278 120.351 175.128 120.558C175.429 120.671 175.712 120.784 176.013 120.896C176.051 120.708 176.107 120.539 176.145 120.351ZM162.938 59.3567C162.731 59.225 162.543 59.0744 162.336 58.9427C162.204 59.1497 162.072 59.3567 161.94 59.5637C162.223 59.6767 162.524 59.8084 162.807 59.9213L162.938 59.3755V59.3567ZM118.327 69.9521C118.176 70.5543 118.27 70.5543 118.798 70.9119C118.798 70.5543 118.835 70.1968 118.854 69.8392C118.685 69.8768 118.496 69.9145 118.327 69.9333V69.9521ZM159.208 51.3396C159.001 51.2079 158.813 51.0573 158.605 50.9256C158.474 51.1326 158.342 51.3396 158.21 51.5466C158.492 51.6595 158.794 51.7725 159.076 51.8854C159.114 51.6972 159.171 51.5278 159.208 51.3396ZM110.81 50.6997C110.603 50.5492 110.414 50.4175 110.207 50.2669C110.075 50.4739 109.943 50.6809 109.811 50.9068C110.094 51.0197 110.395 51.1514 110.678 51.2643L110.81 50.6997ZM138.636 40.3302C138.428 40.1796 138.24 40.0479 138.033 39.8974C137.901 40.1044 137.769 40.3114 137.637 40.5184C137.92 40.6313 138.221 40.763 138.504 40.876C138.541 40.6878 138.579 40.4996 138.636 40.3302ZM97.1135 9.46621C96.9063 9.33447 96.7179 9.18392 96.5107 9.05218C96.3788 9.2592 96.2469 9.46621 96.1151 9.67323C96.3976 9.78614 96.6802 9.91788 96.9817 10.0308C97.0193 9.8426 97.0759 9.67323 97.1135 9.48503V9.46621ZM93.4775 10.9718L93.892 10.3695C93.6848 10.2378 93.4775 10.1061 93.2703 9.97434C93.1573 10.2754 93.0442 10.5577 92.9312 10.8589L93.4775 10.9906V10.9718ZM89.9734 9.40975C89.7662 9.2592 89.5589 9.12746 89.3517 8.9769C89.2198 9.18392 89.088 9.40975 88.9561 9.61677C89.2575 9.72968 89.5401 9.86142 89.8415 9.97434C89.8792 9.78614 89.9357 9.59795 89.9734 9.40975ZM67.6487 13.1172C67.4415 12.9855 67.2531 12.8537 67.0458 12.7032C66.914 12.9102 66.7821 13.0984 66.6314 13.3054C66.914 13.4183 67.2154 13.5312 67.498 13.6441C67.5357 13.4748 67.5922 13.2866 67.6299 13.1172H67.6487Z" fill="#E7DFC6"/>
</svg>
