<svg width="277" height="178" viewBox="0 0 277 178" fill="none" xmlns="http://www.w3.org/2000/svg">
<path d="M33.5529 141.32C30.2829 141.32 27.1429 139.79 25.1329 137.09L24.5129 136.26C23.3629 134.71 22.6529 132.87 22.4829 130.95C22.2729 128.64 22.1329 126.17 22.0529 123.6C21.9829 121.14 21.9329 118.63 21.9229 116.12C21.9229 116.07 21.9229 116.02 21.9229 115.96C21.9429 113.44 21.9929 111.07 22.0529 108.85C22.1829 104.16 25.4029 100.13 29.9429 98.9702L35.7229 97.4902C36.5829 97.2702 37.4529 97.1602 38.3329 97.1602C40.4529 97.1602 42.5529 97.8102 44.3329 99.0402C46.8429 100.79 48.4629 103.54 48.7729 106.57C49.0029 108.81 49.2529 111.19 49.5229 113.71C49.8229 116.2 50.1229 118.63 50.4329 121C50.7229 123.26 51.0129 125.35 51.3229 127.25C52.1829 132.61 48.8129 137.74 43.5629 139.08L36.1529 140.98C35.2929 141.2 34.4129 141.31 33.5429 141.31L33.5529 141.32Z" fill="#FF00FF"/>
<path d="M57.0328 177.3C52.3528 177.3 48.0828 174.15 46.8728 169.4L31.8028 110.58C30.3628 104.96 33.7528 99.2401 39.3728 97.8001L71.7028 89.5201C72.9028 89.2101 74.1228 89.0601 75.3528 89.0601C83.0928 89.0601 89.8628 95.1601 92.1828 104.25L95.5428 117.36C96.2528 120.13 96.4828 122.86 96.2528 125.42C97.6828 127.55 98.7928 130.05 99.5028 132.82L102.863 145.93C105.603 156.62 100.923 166.4 91.9728 168.69L59.6428 176.97C58.7728 177.19 57.8928 177.3 57.0328 177.3Z" fill="#FF00FF"/>
<path d="M104.742 164.94C97.0021 164.94 90.2321 158.84 87.9121 149.75L75.0421 99.5002C73.6021 93.8802 76.9921 88.1602 82.6121 86.7202L98.8321 82.5702C99.6921 82.3502 100.562 82.2402 101.442 82.2402C101.502 82.2402 101.572 82.2402 101.632 82.2402C102.442 81.7802 103.322 81.4202 104.242 81.1802L120.462 77.0302C121.322 76.8102 122.192 76.7002 123.072 76.7002C124.942 76.7002 126.792 77.2002 128.422 78.1602C130.822 79.5802 132.552 81.8902 133.242 84.5902L146.112 134.84C147.232 139.23 147.172 143.54 145.912 147.3C144.162 152.55 140.272 156.3 135.222 157.6L108.412 164.47C107.212 164.78 105.992 164.93 104.762 164.93L104.742 164.94Z" fill="#FF00FF"/>
<path d="M143.513 155.15C141.643 155.15 139.793 154.65 138.163 153.69C135.763 152.27 134.033 149.96 133.343 147.26L118.273 88.4399C117.583 85.7399 117.993 82.8799 119.413 80.4799C120.833 78.0799 123.143 76.3499 125.843 75.6599L158.173 67.3799C159.363 67.0699 160.593 66.9199 161.823 66.9199C169.563 66.9199 176.333 73.0199 178.653 82.1099L182.013 95.2199C182.723 97.9899 182.953 100.72 182.723 103.27C184.153 105.4 185.263 107.9 185.973 110.67L191.523 132.35C192.963 137.97 189.573 143.69 183.953 145.13L167.733 149.28C166.873 149.5 166.003 149.61 165.123 149.61C165.063 149.61 164.993 149.61 164.933 149.61C164.123 150.07 163.243 150.43 162.323 150.67L146.103 154.82C145.243 155.04 144.373 155.15 143.493 155.15H143.513Z" fill="#FF00FF"/>
<path d="M191.223 142.8C183.483 142.8 176.713 136.7 174.393 127.62L163.713 85.9401C160.973 75.2501 165.653 65.4701 174.603 63.1801L201.413 56.3101C202.613 56.0001 203.833 55.8501 205.063 55.8501C212.803 55.8501 219.573 61.9501 221.893 71.0401L224.003 79.2701C224.373 80.7301 224.433 82.2401 224.173 83.7001C225.083 84.8301 225.773 86.1701 226.153 87.6701L232.563 112.71C235.303 123.39 230.623 133.18 221.683 135.47L194.863 142.34C193.663 142.65 192.443 142.8 191.213 142.8H191.223Z" fill="#FF00FF"/>
<path d="M234.463 131.72C226.723 131.72 219.953 125.62 217.633 116.53L215.523 108.3C214.973 106.14 215.123 103.88 215.933 101.83C213.983 99.42 212.483 96.43 211.603 93.01L206.953 74.86C204.213 64.18 208.893 54.39 217.843 52.1L244.653 45.23C245.853 44.92 247.073 44.77 248.303 44.77C256.043 44.77 262.813 50.87 265.133 59.96L267.243 68.19C267.793 70.35 267.643 72.61 266.833 74.66C268.783 77.07 270.283 80.06 271.163 83.48L275.813 101.63C278.553 112.31 273.873 122.1 264.923 124.39L238.113 131.26C236.923 131.57 235.693 131.72 234.463 131.72Z" fill="#FF00FF"/>
<path d="M36.3626 108.89C34.4926 108.89 32.6426 108.39 31.0126 107.42C28.6126 106 26.8826 103.69 26.1926 100.99L18.0326 69.1501L17.3926 69.3101C16.5226 69.5301 15.6426 69.6401 14.7826 69.6401C10.1026 69.6401 5.83256 66.4901 4.62256 61.7401L0.322562 44.9401C-0.367438 42.2401 0.0425619 39.3801 1.46256 36.9801C2.88256 34.5801 5.19256 32.8501 7.89256 32.1601L45.7326 22.4701C46.5926 22.2501 47.4626 22.1401 48.3426 22.1401C50.2126 22.1401 52.0626 22.6401 53.6926 23.6001C56.0926 25.0201 57.8226 27.3301 58.5126 30.0301L62.8126 46.8401C63.5026 49.5401 63.0926 52.4001 61.6726 54.8001C60.2526 57.2001 57.9426 58.9301 55.2426 59.6201L54.6026 59.7801L62.7626 91.6201C63.4526 94.3201 63.0426 97.1801 61.6226 99.5801C60.2026 101.98 57.8926 103.71 55.1926 104.4L38.9726 108.55C38.1126 108.77 37.2426 108.88 36.3626 108.88V108.89Z" fill="#FF00FF"/>
<path d="M68.7828 100.59C64.1028 100.59 59.8328 97.4398 58.6228 92.6898L43.5528 33.8698C42.1128 28.2498 45.5028 22.5298 51.1228 21.0898L67.3428 16.9398C68.2028 16.7198 69.0728 16.6098 69.9528 16.6098C70.0128 16.6098 70.0728 16.6098 70.1428 16.6098C70.9428 16.1498 71.8228 15.7898 72.7528 15.5498L88.9628 11.3998C89.8228 11.1798 90.6928 11.0698 91.5728 11.0698C93.4428 11.0698 95.2928 11.5698 96.9228 12.5398C99.3228 13.9598 101.053 16.2698 101.743 18.9698L116.803 77.7898C118.243 83.4098 114.853 89.1298 109.233 90.5698L93.0128 94.7198C92.1528 94.9398 91.2828 95.0498 90.4028 95.0498C90.3428 95.0498 90.2729 95.0498 90.2128 95.0498C89.4028 95.5098 88.5228 95.8698 87.6028 96.1098L71.3828 100.26C70.5128 100.48 69.6328 100.59 68.7728 100.59H68.7828Z" fill="#FF00FF"/>
<path d="M112.023 89.51C110.153 89.51 108.303 89.01 106.673 88.05C104.273 86.63 102.543 84.32 101.853 81.62L86.7825 22.8C86.0925 20.1 86.5025 17.24 87.9225 14.84C89.3425 12.44 91.6525 10.71 94.3525 10.02L132.193 0.33C133.063 0.11 133.943 0 134.803 0C139.483 0 143.753 3.15 144.963 7.9L148.623 22.18C149.003 23.67 149.053 25.22 148.773 26.71C149.733 27.88 150.433 29.26 150.813 30.75L154.173 43.86C154.553 45.36 154.603 46.9 154.323 48.39C155.283 49.56 155.983 50.94 156.363 52.43L160.023 66.71C161.463 72.33 158.073 78.05 152.453 79.49L114.613 89.18C113.753 89.4 112.883 89.51 112.003 89.51H112.023Z" fill="#FF00FF"/>
<path d="M32.9329 130C32.7429 127.9 32.6129 125.67 32.5429 123.3C32.4729 120.93 32.4329 118.52 32.4229 116.08C32.4429 113.63 32.4929 111.32 32.5529 109.15L38.3329 107.67C38.5729 109.94 38.8229 112.35 39.0929 114.91C39.4029 117.46 39.7129 119.94 40.0229 122.37C40.3229 124.74 40.6329 126.93 40.9529 128.94L33.5429 130.84L32.9229 130.01L32.9329 130Z" fill="#E6DEC5"/>
<path d="M85.3727 119.97C86.2727 123.5 85.8227 126.66 84.3227 128.48C86.5027 129.35 88.4227 131.91 89.3327 135.43L92.6927 148.54C93.9627 153.5 92.5627 157.71 89.3727 158.52L57.0427 166.8L41.9727 107.98L74.3027 99.7001C77.4927 98.8801 80.7427 101.9 82.0127 106.86L85.3727 119.97ZM60.3427 112.23L64.6427 129.04L67.3427 128.35C68.9127 127.95 69.5727 125.81 68.9527 123.37L66.8427 115.14C66.2227 112.7 64.6127 111.15 63.0427 111.55L60.3427 112.24V112.23ZM75.4127 148.57L73.3027 140.34C72.6827 137.9 71.0727 136.35 69.5027 136.75L66.8027 137.44L71.1027 154.25L73.8027 153.56C75.3727 153.16 76.0327 151.02 75.4127 148.58V148.57Z" fill="#E6DEC5"/>
<path d="M105.793 154.31C102.603 155.13 99.3529 152.11 98.0829 147.15L85.2129 96.9L101.433 92.75L113.253 138.88C113.873 141.32 115.483 142.87 117.053 142.47C118.623 142.07 119.283 139.93 118.663 137.49L106.843 91.36L123.063 87.21L135.933 137.46C137.203 142.42 135.803 146.63 132.613 147.44L105.803 154.31H105.793Z" fill="#E6DEC5"/>
<path d="M171.842 97.8202C172.742 101.35 172.292 104.51 170.792 106.33C172.972 107.2 174.892 109.76 175.802 113.28L181.352 134.96L165.132 139.11L159.772 118.19C159.152 115.75 157.542 114.2 155.972 114.6L153.272 115.29L159.732 140.5L143.512 144.65L128.442 85.8302L160.772 77.5502C163.962 76.7302 167.212 79.7502 168.482 84.7102L171.842 97.8202ZM146.822 90.0802L151.122 106.89L153.822 106.2C155.392 105.8 156.052 103.66 155.432 101.22L153.322 92.9902C152.702 90.5502 151.092 89.0002 149.522 89.4002L146.822 90.0902V90.0802Z" fill="#E6DEC5"/>
<path d="M213.832 81.8699L197.612 86.0199L196.562 81.8999C195.942 79.4599 194.332 77.9099 192.762 78.3099C191.192 78.7099 190.532 80.8499 191.162 83.2899L199.732 116.73C200.352 119.17 201.962 120.72 203.532 120.32C205.102 119.92 205.762 117.78 205.142 115.34L203.442 108.7L200.742 109.39L197.082 95.1099L216.002 90.2599L222.412 115.3C223.682 120.26 222.282 124.47 219.092 125.28L192.282 132.15C189.092 132.97 185.842 129.95 184.572 124.99L173.902 83.3099C172.632 78.3499 174.032 74.1399 177.222 73.3299L204.032 66.4599C207.222 65.6399 210.472 68.6599 211.742 73.6199L213.852 81.8499L213.832 81.8699Z" fill="#E6DEC5"/>
<path d="M235.502 121.09C232.312 121.91 229.062 118.89 227.792 113.93L225.682 105.7L241.902 101.55L242.952 105.67C243.572 108.11 245.182 109.66 246.752 109.26C248.322 108.86 248.982 106.72 248.352 104.28L246.672 97.7301C246.052 95.2901 244.442 93.7401 242.872 94.1401L229.462 97.5701C226.272 98.3901 223.022 95.3701 221.752 90.4101L217.102 72.2601C215.832 67.3001 217.232 63.0901 220.422 62.2801L247.232 55.4101C250.422 54.5901 253.672 57.6101 254.942 62.5701L257.052 70.8001L240.832 74.9501L239.782 70.8301C239.162 68.3901 237.552 66.8401 235.982 67.2401C234.412 67.6401 233.752 69.7801 234.382 72.2201L236.062 78.7701C236.682 81.2101 238.292 82.7601 239.862 82.3601L253.272 78.9301C256.462 78.1101 259.712 81.1301 260.982 86.0901L265.632 104.24C266.902 109.2 265.502 113.41 262.312 114.22L235.502 121.09Z" fill="#E6DEC5"/>
<path d="M48.3224 32.6499L52.6224 49.4599L41.8124 52.2299L52.5724 94.2399L36.3524 98.3899L25.5924 56.3799L14.7824 59.1499L10.4824 42.3399L48.3224 32.6499Z" fill="#E6DEC5"/>
<path d="M75.3429 25.7301L91.5629 21.5801L106.633 80.4001L90.4129 84.5501L83.9529 59.3401L78.5429 60.7201L85.0029 85.9301L68.7829 90.0801L53.7129 31.2601L69.9329 27.1101L76.3929 52.3201L81.8029 50.9401L75.3429 25.7301Z" fill="#E6DEC5"/>
<path d="M138.463 24.78L116.793 30.15L119.033 38.89L140.653 33.35L144.013 46.46L122.393 52L124.633 60.74L146.213 55.03L149.873 69.31L112.033 79L96.9629 20.18L134.803 10.5L138.463 24.78Z" fill="#E6DEC5"/>
</svg>
