<svg width="619" height="479" viewBox="0 0 619 479" fill="none" xmlns="http://www.w3.org/2000/svg">
<path d="M42.3882 231.926C40.7371 231.048 39.3384 229.738 38.3499 228.125C36.8975 225.745 36.4545 222.893 37.1128 220.185L49.4596 169.295L43.9414 167.958C43.0788 167.748 42.259 167.437 41.4909 167.028C39.8397 166.15 38.441 164.84 37.4525 163.228C36.0001 160.847 35.5571 157.995 36.2154 155.287L42.1421 130.849C43.5091 125.211 49.1877 121.752 54.8259 123.119L109.86 136.469C110.732 136.683 111.561 136.999 112.32 137.403C116.452 139.6 118.743 144.386 117.582 149.148L111.655 173.586C110.288 179.224 104.61 182.683 98.9713 181.316L93.4532 179.979L81.1064 230.869C79.7394 236.508 74.0608 239.967 68.4226 238.6L44.8383 232.878C43.9757 232.668 43.1559 232.357 42.3877 231.948L42.3882 231.926Z" fill="#CC0000"/>
<path d="M89.5342 243.37C85.402 241.172 83.1106 236.387 84.2722 231.625L105.016 146.091C105.674 143.383 107.379 141.05 109.759 139.598C112.14 138.146 114.992 137.703 117.7 138.361L141.284 144.083C142.155 144.297 142.984 144.613 143.743 145.017C144.194 145.256 144.616 145.526 145.025 145.823C146.386 145.606 147.785 145.659 149.15 145.989L172.734 151.711C173.606 151.925 174.434 152.241 175.194 152.645C179.326 154.842 181.617 159.628 180.455 164.39L159.712 249.923C159.054 252.631 157.349 254.964 154.968 256.416C152.588 257.869 149.736 258.312 147.028 257.653L123.444 251.931C122.572 251.717 121.744 251.401 120.984 250.997C120.534 250.758 120.111 250.488 119.703 250.191C118.342 250.408 116.943 250.355 115.587 250.03L92.0024 244.308C91.131 244.094 90.3023 243.778 89.543 243.374L89.5342 243.37Z" fill="#CC0000"/>
<path d="M152.417 258.616C148.285 256.419 145.994 251.633 147.155 246.871L167.899 161.337C169.266 155.699 174.945 152.24 180.583 153.607L235.617 166.957C236.48 167.167 237.3 167.478 238.068 167.886C239.719 168.764 241.118 170.074 242.106 171.687C243.559 174.068 244.002 176.919 243.343 179.627L238.3 200.401C237.751 202.669 236.471 204.673 234.663 206.112C235.578 208.162 235.846 210.513 235.277 212.861L230.657 231.923C230.108 234.191 228.828 236.194 227.02 237.634C227.961 239.742 228.183 242.114 227.634 244.382L222.591 265.156C221.933 267.864 220.228 270.197 217.847 271.649C215.467 273.102 212.615 273.545 209.907 272.886L154.873 259.536C154.001 259.322 153.173 259.006 152.413 258.602L152.417 258.616Z" fill="#CC0000"/>
<path d="M250.124 221.638C247.236 220.103 245.182 217.278 244.675 213.95L244.453 212.473C244.165 210.564 244.406 208.62 245.153 206.831C246.405 203.839 247.867 200.663 249.483 197.389C251.028 194.269 252.67 191.054 254.362 187.83C254.385 187.786 254.413 187.733 254.437 187.689C256.247 184.37 257.872 181.44 259.407 178.746C261.719 174.674 266.454 172.628 271.012 173.726L279.42 175.762C280.283 175.972 281.103 176.283 281.871 176.691C283.743 177.687 285.297 179.238 286.286 181.168C287.685 183.883 287.825 187.071 286.671 189.901C285.441 192.939 284.134 196.163 282.751 199.595C281.431 203.016 280.153 206.357 278.926 209.623C277.728 212.77 276.666 215.704 275.758 218.37C274.001 223.507 268.617 226.454 263.353 225.172L252.588 222.563C251.725 222.354 250.897 222.038 250.137 221.634L250.124 221.638Z" fill="#CC0000"/>
<path d="M255.696 283.665C251.564 281.468 249.273 276.682 250.435 271.92L271.178 186.386C271.836 183.678 273.541 181.346 275.922 179.893C278.302 178.441 281.154 177.998 283.862 178.656L330.87 190.06C332.227 190.385 333.534 190.887 334.752 191.535C342.849 195.84 346.323 205.899 343.595 217.144L338.975 236.207C337.968 240.337 336.284 243.972 334.072 246.919C334.696 250.558 334.529 254.557 333.522 258.688L328.902 277.75C325.714 290.881 315.743 298.558 305.178 295.999L258.169 284.595C257.298 284.38 256.469 284.064 255.71 283.661L255.696 283.665Z" fill="#CC0000"/>
<path d="M325.179 300.325C317.082 296.019 313.608 285.961 316.336 274.716L334.057 201.641C334.715 198.934 336.42 196.601 338.8 195.148C341.181 193.696 344.033 193.253 346.741 193.911L370.325 199.633C371.196 199.847 372.025 200.163 372.784 200.567C373.235 200.807 373.657 201.077 374.066 201.373C375.427 201.157 376.826 201.21 378.182 201.534L401.766 207.256C402.638 207.471 403.466 207.787 404.226 208.19C408.358 210.387 410.649 215.173 409.488 219.935L391.767 293.01C390.431 298.505 387.875 303.183 384.37 306.518C379.75 310.925 373.793 312.65 368.048 311.249L329.052 301.795C327.695 301.47 326.388 300.968 325.17 300.32L325.179 300.325Z" fill="#CC0000"/>
<path d="M381.458 314.166C377.326 311.969 375.035 307.183 376.196 302.421L396.94 216.888C397.598 214.18 399.303 211.847 401.683 210.395C404.064 208.942 406.916 208.499 409.624 209.158L456.632 220.562C457.988 220.886 459.296 221.389 460.514 222.037C468.611 226.342 472.085 236.4 469.356 247.646L464.736 266.708C463.738 270.843 462.046 274.474 459.834 277.42C460.458 281.059 460.291 285.059 459.293 289.194L451.645 320.725C450.986 323.432 449.282 325.765 446.901 327.218C444.521 328.67 441.669 329.113 438.961 328.455L415.377 322.733C414.505 322.519 413.677 322.203 412.917 321.799C412.467 321.559 412.044 321.289 411.636 320.993C410.275 321.209 408.876 321.156 407.52 320.832L383.935 315.11C383.064 314.895 382.235 314.579 381.476 314.176L381.458 314.166Z" fill="#CC0000"/>
<path d="M450.931 330.821C442.834 326.516 439.36 316.458 442.088 305.212L456.781 244.606C459.969 231.476 469.94 223.798 480.505 226.358L519.501 235.812C520.858 236.137 522.165 236.639 523.383 237.287C531.48 241.592 534.954 251.651 532.226 262.896L529.322 274.875C528.764 277.16 527.498 279.093 525.813 280.495C526.696 282.562 526.902 284.88 526.359 287.094L517.528 323.511C514.341 336.642 504.369 344.319 493.804 341.759L454.808 332.305C453.452 331.98 452.145 331.478 450.926 330.83L450.931 330.821Z" fill="#CC0000"/>
<path d="M513.814 346.067C505.717 341.762 502.243 331.704 504.971 320.459L507.875 308.48C508.649 305.278 510.814 302.782 513.571 301.474C512.085 297.048 511.926 291.787 513.268 286.238L519.669 259.843C522.856 246.713 532.828 239.036 543.393 241.595L582.389 251.049C583.745 251.374 585.052 251.877 586.271 252.525C594.368 256.83 597.842 266.888 595.113 278.133L592.21 290.112C591.551 292.82 589.847 295.153 587.466 296.605C587.153 296.79 586.835 296.961 586.514 297.118C587.991 301.539 588.159 306.805 586.808 312.349L580.407 338.744C579.07 344.24 576.515 348.918 573.009 352.252C568.39 356.659 562.432 358.384 556.688 356.983L517.692 347.529C516.335 347.204 515.028 346.702 513.81 346.054L513.814 346.067Z" fill="#CC0000"/>
<path d="M107.378 146.656L101.451 171.094L85.7193 167.282L70.9025 228.377L47.3182 222.655L62.135 161.56L46.4119 157.753L52.3387 133.315L107.378 146.656Z" fill="#E6DEC5"/>
<path d="M146.672 156.189L170.256 161.911L149.503 247.44L125.919 241.718L134.809 205.061L126.952 203.159L118.062 239.816L94.4777 234.095L115.221 148.561L138.806 154.283L129.916 190.94L137.773 192.842L146.672 156.189Z" fill="#E6DEC5"/>
<path d="M228.096 197.931L196.705 190.063L193.622 202.762L225.068 210.399L220.448 229.461L188.998 221.834L185.915 234.533L217.425 241.921L212.382 262.695L157.356 249.349L178.099 163.816L233.13 177.152L228.096 197.931Z" fill="#E6DEC5"/>
<path d="M254.832 210.89C256.012 208.074 257.365 205.124 258.892 202.04C260.418 198.956 262.004 195.846 263.648 192.711C265.355 189.586 266.976 186.665 268.521 183.931L276.929 185.966C275.685 189.031 274.373 192.286 272.976 195.745C271.641 199.214 270.343 202.613 269.088 205.932C267.853 209.171 266.771 212.186 265.811 214.972L255.037 212.358L254.814 210.88L254.832 210.89Z" fill="#E6DEC5"/>
<path d="M328.771 233.736C327.524 238.872 324.791 242.606 321.64 243.909C323.834 246.514 324.56 251.091 323.318 256.218L318.698 275.28C316.947 282.492 312.291 286.925 307.658 285.798L260.649 274.394L281.393 188.861L328.401 200.265C333.034 201.392 335.141 207.462 333.399 214.678L328.779 233.741L328.771 233.736ZM302.005 206.797L296.078 231.235L300.009 232.192C302.285 232.746 304.588 230.46 305.455 226.911L308.359 214.932C309.222 211.393 308.217 208.299 305.94 207.746L302.009 206.788L302.005 206.797ZM296.561 263.577L299.464 251.598C300.327 248.059 299.322 244.965 297.045 244.412L293.115 243.454L287.188 267.892L291.119 268.85C293.395 269.403 295.698 267.117 296.565 263.569L296.561 263.577Z" fill="#E6DEC5"/>
<path d="M331.53 291.595C326.897 290.467 324.79 284.398 326.532 277.181L344.253 204.107L367.837 209.829L351.568 276.913C350.706 280.453 351.711 283.547 353.987 284.1C356.264 284.654 358.567 282.367 359.434 278.819L375.703 211.734L399.287 217.456L381.567 290.531C379.816 297.743 375.16 302.176 370.526 301.049L331.53 291.595Z" fill="#E6DEC5"/>
<path d="M454.531 264.238C453.284 269.374 450.551 273.108 447.401 274.411C449.595 277.016 450.321 281.593 449.079 286.719L441.431 318.25L417.847 312.528L425.225 282.1C426.088 278.561 425.083 275.467 422.806 274.913L418.875 273.956L409.985 310.613L386.401 304.891L407.145 219.358L454.153 230.762C458.786 231.889 460.893 237.959 459.151 245.176L454.531 264.238ZM427.765 237.299L421.839 261.737L425.769 262.694C428.046 263.248 430.349 260.961 431.216 257.413L434.12 245.434C434.983 241.895 433.977 238.801 431.701 238.247L427.77 237.29L427.765 237.299Z" fill="#E6DEC5"/>
<path d="M519.122 272.396L495.538 266.674L496.99 260.685C497.852 257.145 496.847 254.051 494.571 253.498C492.294 252.944 489.991 255.231 489.124 258.779L477.33 307.415C476.467 310.954 477.473 314.048 479.749 314.602C482.026 315.155 484.329 312.869 485.196 309.321L487.54 299.672L483.61 298.715L488.653 277.941L516.172 284.611L507.342 321.028C505.591 328.24 500.935 332.673 496.302 331.546L457.306 322.092C452.672 320.965 450.557 314.891 452.307 307.678L467.009 247.077C468.76 239.864 473.416 235.432 478.049 236.559L517.045 246.013C521.679 247.14 523.786 253.21 522.044 260.426L519.14 272.405L519.122 272.396Z" fill="#E6DEC5"/>
<path d="M520.175 337.342C515.542 336.215 513.435 330.145 515.177 322.929L518.08 310.95L541.665 316.672L540.213 322.661C539.35 326.2 540.355 329.294 542.632 329.848C544.908 330.402 547.211 328.115 548.079 324.567L550.393 315.038C551.256 311.499 550.251 308.405 547.974 307.851L528.472 303.122C523.838 301.995 521.731 295.925 523.473 288.708L529.874 262.313C531.625 255.101 536.281 250.668 540.914 251.795L579.915 261.263C584.548 262.39 586.655 268.46 584.913 275.677L582.009 287.656L558.425 281.934L559.877 275.944C560.739 272.405 559.734 269.311 557.457 268.757C555.181 268.204 552.878 270.49 552.011 274.038L549.696 283.567C548.834 287.107 549.839 290.201 552.115 290.754L571.609 295.479C576.242 296.606 578.349 302.676 576.607 309.893L570.206 336.287C568.456 343.499 563.799 347.932 559.166 346.805L520.17 337.351L520.175 337.342Z" fill="#E6DEC5"/>
</svg>
